<svg width="53" height="48" viewBox="0 0 53 48" fill="none" xmlns="http://www.w3.org/2000/svg">
<path fill-rule="evenodd" clip-rule="evenodd" d="M46.2076 16.205V7.48519C46.2076 6.98515 46.0143 6.50057 45.6664 6.14487L40.2148 0.554172C39.8669 0.201048 39.3978 0 38.908 0H7.29961C6.80987 0 6.34076 0.201048 5.99279 0.554172L0.541284 6.14744C0.195893 6.50057 0 6.98515 0 7.48777V39.8952C0 40.3979 0.195893 40.8799 0.541284 41.2356L5.99279 46.8288C6.34076 47.1819 6.80987 47.383 7.29961 47.383H38.908C39.3978 47.383 39.8669 47.182 40.2148 46.8262L45.6664 41.2356C46.0143 40.8799 46.2076 40.3979 46.2076 39.8952V31.178C46.2076 30.6728 46.4035 30.1934 46.7489 29.8377L52.0844 24.3655C52.4479 23.9944 52.4479 23.3886 52.0844 23.0149L46.7489 17.5453C46.4035 17.1896 46.2076 16.7076 46.2076 16.205Z" fill="#00D674"/>
<path fill-rule="evenodd" clip-rule="evenodd" d="M28.0847 30.1959C28.0486 30.732 27.8424 31.1702 27.4506 31.5311C27.0511 31.8971 26.5202 32.0775 25.8268 32.0775C25.0793 32.0775 24.453 31.8198 23.9194 31.2965C23.3987 30.7862 23.1358 29.9201 23.1358 28.7216V20.7982H29.8375V17.4603H23.1358V12.8877H19.785V17.4603H14.8877V20.7982H19.785V28.7112C19.785 30.8248 20.383 32.4899 21.561 33.6601C22.7337 34.82 24.1591 35.4129 25.7933 35.4129C27.5563 35.4129 28.9508 34.8896 29.9431 33.856C30.9329 32.825 31.433 31.6084 31.433 30.232V29.7062H28.1157L28.0847 30.1959Z" fill="white"/>
</svg>
